<svg id="SvgjsSvg1006" width="1058.8359375" height="872.7265625" xmlns="http://www.w3.org/2000/svg" version="1.1" xmlns:xlink="http://www.w3.org/1999/xlink" xmlns:svgjs="http://svgjs.com/svgjs"><defs id="SvgjsDefs1007"><pattern patternUnits="userSpaceOnUse" id="pattern_mark_0" width="300" height="300"><text x="150" y="100" fill="rgba(229,229,229,0.8)" font-size="18" transform="rotate(-45, 150, 150)" style="dominant-baseline: middle; text-anchor: middle;"></text></pattern><pattern patternUnits="userSpaceOnUse" id="pattern_mark_1" width="300" height="300"><text x="150" y="200" fill="rgba(229,229,229,0.8)" font-size="18" transform="rotate(-45, 150, 150)" style="dominant-baseline: middle; text-anchor: middle;"></text></pattern><marker id="SvgjsMarker1038" markerWidth="12" markerHeight="8" refX="9" refY="4" viewBox="0 0 12 8" orient="auto" markerUnits="userSpaceOnUse" stroke-dasharray="0,0"><path id="SvgjsPath1039" d="M0,0 L12,4 L0,8 L0,0" fill="#000000" stroke="#000000" stroke-width="1"></path></marker><marker id="SvgjsMarker1046" markerWidth="12" markerHeight="8" refX="9" refY="4" viewBox="0 0 12 8" orient="auto" markerUnits="userSpaceOnUse" stroke-dasharray="0,0"><path id="SvgjsPath1047" d="M0,0 L12,4 L0,8 L0,0" fill="#000000" stroke="#000000" stroke-width="1"></path></marker><marker id="SvgjsMarker1054" markerWidth="12" markerHeight="8" refX="9" refY="4" viewBox="0 0 12 8" orient="auto" markerUnits="userSpaceOnUse" stroke-dasharray="0,0"><path id="SvgjsPath1055" d="M0,0 L12,4 L0,8 L0,0" fill="#cc6600" stroke="#cc6600" stroke-width="1"></path></marker><marker id="SvgjsMarker1064" markerWidth="12" markerHeight="8" refX="9" refY="4" viewBox="0 0 12 8" orient="auto" markerUnits="userSpaceOnUse" stroke-dasharray="0,0"><path id="SvgjsPath1065" d="M0,0 L12,4 L0,8 L0,0" fill="#000000" stroke="#000000" stroke-width="1"></path></marker><marker id="SvgjsMarker1072" markerWidth="12" markerHeight="8" refX="9" refY="4" viewBox="0 0 12 8" orient="auto" markerUnits="userSpaceOnUse" stroke-dasharray="0,0"><path id="SvgjsPath1073" d="M0,0 L12,4 L0,8 L0,0" fill="#cc6600" stroke="#cc6600" stroke-width="1"></path></marker><marker id="SvgjsMarker1102" markerWidth="12" markerHeight="8" refX="9" refY="4" viewBox="0 0 12 8" orient="auto" markerUnits="userSpaceOnUse" stroke-dasharray="0,0"><path id="SvgjsPath1103" d="M0,0 L12,4 L0,8 L0,0" fill="#323232" stroke="#323232" stroke-width="1"></path></marker><marker id="SvgjsMarker1117" markerWidth="12" markerHeight="8" refX="9" refY="4" viewBox="0 0 12 8" orient="auto" markerUnits="userSpaceOnUse" stroke-dasharray="0,0"><path id="SvgjsPath1118" d="M0,0 L12,4 L0,8 L0,0" fill="#000000" stroke="#000000" stroke-width="1"></path></marker><marker id="SvgjsMarker1125" markerWidth="12" markerHeight="8" refX="9" refY="4" viewBox="0 0 12 8" orient="auto" markerUnits="userSpaceOnUse" stroke-dasharray="0,0"><path id="SvgjsPath1126" d="M0,0 L12,4 L0,8 L0,0" fill="#cc6600" stroke="#cc6600" stroke-width="1"></path></marker><marker id="SvgjsMarker1135" markerWidth="12" markerHeight="8" refX="9" refY="4" viewBox="0 0 12 8" orient="auto" markerUnits="userSpaceOnUse" stroke-dasharray="0,0"><path id="SvgjsPath1136" d="M0,0 L12,4 L0,8 L0,0" fill="#cc6600" stroke="#cc6600" stroke-width="1"></path></marker><marker id="SvgjsMarker1147" markerWidth="13" markerHeight="9" refX="9.5" refY="4.5" viewBox="0 0 13 9" orient="auto" markerUnits="userSpaceOnUse" stroke-dasharray="0,0"><path id="SvgjsPath1148" d="M0,0 L13,4.5 L0,9 L0,0" fill="#323232" stroke="#323232" stroke-width="1"></path></marker><marker id="SvgjsMarker1155" markerWidth="13" markerHeight="9" refX="9.5" refY="4.5" viewBox="0 0 13 9" orient="auto" markerUnits="userSpaceOnUse" stroke-dasharray="0,0"><path id="SvgjsPath1156" d="M0,0 L13,4.5 L0,9 L0,0" fill="#323232" stroke="#323232" stroke-width="1"></path></marker><marker id="SvgjsMarker1163" markerWidth="13" markerHeight="9" refX="9.5" refY="4.5" viewBox="0 0 13 9" orient="auto" markerUnits="userSpaceOnUse" stroke-dasharray="0,0"><path id="SvgjsPath1164" d="M0,0 L13,4.5 L0,9 L0,0" fill="#323232" stroke="#323232" stroke-width="1"></path></marker><marker id="SvgjsMarker1171" markerWidth="13" markerHeight="9" refX="9.5" refY="4.5" viewBox="0 0 13 9" orient="auto" markerUnits="userSpaceOnUse" stroke-dasharray="0,0"><path id="SvgjsPath1172" d="M0,0 L13,4.5 L0,9 L0,0" fill="#323232" stroke="#323232" stroke-width="1"></path></marker><marker id="SvgjsMarker1183" markerWidth="13" markerHeight="9" refX="9.5" refY="4.5" viewBox="0 0 13 9" orient="auto" markerUnits="userSpaceOnUse" stroke-dasharray="0,0"><path id="SvgjsPath1184" d="M0,0 L13,4.5 L0,9 L0,0" fill="#323232" stroke="#323232" stroke-width="1"></path></marker><marker id="SvgjsMarker1191" markerWidth="12" markerHeight="8" refX="9" refY="4" viewBox="0 0 12 8" orient="auto" markerUnits="userSpaceOnUse" stroke-dasharray="0,0"><path id="SvgjsPath1192" d="M0,0 L12,4 L0,8 L0,0" fill="#cc6600" stroke="#cc6600" stroke-width="1"></path></marker><marker id="SvgjsMarker1201" markerWidth="13" markerHeight="9" refX="9.5" refY="4.5" viewBox="0 0 13 9" orient="auto" markerUnits="userSpaceOnUse" stroke-dasharray="0,0"><path id="SvgjsPath1202" d="M0,0 L13,4.5 L0,9 L0,0" fill="#323232" stroke="#323232" stroke-width="1"></path></marker><marker id="SvgjsMarker1211" markerWidth="13" markerHeight="9" refX="9.5" refY="4.5" viewBox="0 0 13 9" orient="auto" markerUnits="userSpaceOnUse" stroke-dasharray="0,0"><path id="SvgjsPath1212" d="M0,0 L13,4.5 L0,9 L0,0" fill="#323232" stroke="#323232" stroke-width="1"></path></marker><marker id="SvgjsMarker1219" markerWidth="13" markerHeight="9" refX="9.5" refY="4.5" viewBox="0 0 13 9" orient="auto" markerUnits="userSpaceOnUse" stroke-dasharray="0,0"><path id="SvgjsPath1220" d="M0,0 L13,4.5 L0,9 L0,0" fill="#323232" stroke="#323232" stroke-width="1"></path></marker><marker id="SvgjsMarker1227" markerWidth="13" markerHeight="9" refX="9.5" refY="4.5" viewBox="0 0 13 9" orient="auto" markerUnits="userSpaceOnUse" stroke-dasharray="0,0"><path id="SvgjsPath1228" d="M0,0 L13,4.5 L0,9 L0,0" fill="#323232" stroke="#323232" stroke-width="1"></path></marker><marker id="SvgjsMarker1235" markerWidth="13" markerHeight="9" refX="9.5" refY="4.5" viewBox="0 0 13 9" orient="auto" markerUnits="userSpaceOnUse" stroke-dasharray="0,0"><path id="SvgjsPath1236" d="M0,0 L13,4.5 L0,9 L0,0" fill="#323232" stroke="#323232" stroke-width="1"></path></marker></defs><rect id="svgbackgroundid" width="1058.8359375" height="872.7265625" fill="transparent"></rect><rect id="SvgjsRect1009" width="1058.8359375" height="872.7265625" fill="url(#pattern_mark_0)"></rect><rect id="SvgjsRect1010" width="1058.8359375" height="872.7265625" fill="url(#pattern_mark_1)"></rect><g id="SvgjsG1011" transform="translate(210.48649447949526,91.7266221374046)"><path id="SvgjsPath1012" d="M 46.42507886435328 30L 46.42507886435328 756.2733778625956" stroke-dasharray="3,4" stroke="rgba(0,0,0,1)" stroke-width="2" fill="none"></path><path id="SvgjsPath1013" d="M 0 0L 92.85015772870656 0L 92.85015772870656 30L 0 30Z" stroke="rgba(0,0,0,1)" stroke-width="1" fill-opacity="1" fill="#ffffcc"></path><g id="SvgjsG1014"><text id="SvgjsText1015" font-family="微软雅黑" text-anchor="middle" font-size="13px" width="73px" fill="#323232" font-weight="700" align="middle" lineHeight="125%" anchor="middle" family="微软雅黑" size="13px" weight="700" font-style="" opacity="1" y="4.375" transform="rotate(0)"><tspan id="SvgjsTspan1016" dy="16" x="46.5"><tspan id="SvgjsTspan1017" style="text-decoration:;">wx app</tspan></tspan></text></g></g><g id="SvgjsG1018" transform="translate(423.17813485804413,91.7266221374046)"><path id="SvgjsPath1019" d="M 42.082807570977934 30L 42.082807570977934 756.2733778625955" stroke-dasharray="3,4" stroke="rgba(0,0,0,1)" stroke-width="2" fill="none"></path><path id="SvgjsPath1020" d="M 0 0L 84.16561514195587 0L 84.16561514195587 30L 0 30Z" stroke="rgba(0,0,0,1)" stroke-width="1" fill-opacity="1" fill="#ffffcc"></path><g id="SvgjsG1021"><text id="SvgjsText1022" font-family="微软雅黑" text-anchor="middle" font-size="13px" width="65px" fill="#323232" font-weight="700" align="middle" lineHeight="125%" anchor="middle" family="微软雅黑" size="13px" weight="700" font-style="" opacity="1" y="-4.125" transform="rotate(0)"><tspan id="SvgjsTspan1023" dy="16" x="42.5"><tspan id="SvgjsTspan1024" style="text-decoration:;">wx cloud </tspan></tspan><tspan id="SvgjsTspan1025" dy="16" x="42.5"><tspan id="SvgjsTspan1026" style="text-decoration:;">service</tspan></tspan></text></g></g><g id="SvgjsG1027" transform="translate(620.34375,91.72662213740455)"><path id="SvgjsPath1028" d="M 51.5 30L 51.5 752.2733778625955" stroke-dasharray="3,4" stroke="rgba(0,0,0,1)" stroke-width="2" fill="none"></path><path id="SvgjsPath1029" d="M 0 0L 103 0L 103 30L 0 30Z" stroke="rgba(0,0,0,1)" stroke-width="1" fill-opacity="1" fill="#ffffcc"></path><g id="SvgjsG1030"><text id="SvgjsText1031" font-family="微软雅黑" text-anchor="middle" font-size="13px" width="83px" fill="#323232" font-weight="700" align="middle" lineHeight="125%" anchor="middle" family="微软雅黑" size="13px" weight="700" font-style="" opacity="1" y="-4.125" transform="rotate(0)"><tspan id="SvgjsTspan1032" dy="16" x="51.5"><tspan id="SvgjsTspan1033" style="text-decoration:;">aigc web </tspan></tspan><tspan id="SvgjsTspan1034" dy="16" x="51.5"><tspan id="SvgjsTspan1035" style="text-decoration:;">service</tspan></tspan></text></g></g><g id="SvgjsG1036"><path id="SvgjsPath1037" d="M86.10387447417162 204.12405367426254L241.91157334384854 204.12405367426254" stroke="#000000" stroke-width="1" fill="none" marker-end="url(#SvgjsMarker1038)"></path><rect id="SvgjsRect1040" width="99" height="15" x="114.50772390901005" y="196.62405367426254" fill="#ffffff"></rect><text id="SvgjsText1041" font-family="微软雅黑" text-anchor="middle" font-size="12px" width="99px" fill="#323232" font-weight="700" align="top" lineHeight="15px" anchor="middle" family="微软雅黑" size="12px" weight="700" font-style="" opacity="1" y="194.12405367426254" transform="rotate(0)"><tspan id="SvgjsTspan1042" dy="15" x="164.00772390901005"><tspan id="SvgjsTspan1043" style="text-decoration:;">upload QC image</tspan></tspan></text></g><g id="SvgjsG1044"><path id="SvgjsPath1045" d="M260.7081033123028 213.75667938931298L353.51725515353655 213.75667938931298L353.51725515353655 214.62409180351756L446.3264069947702 214.62409180351756" stroke="#000000" stroke-width="1" fill="none" marker-end="url(#SvgjsMarker1046)"></path><rect id="SvgjsRect1048" width="99" height="15" x="304.01725515353655" y="206.69038559641527" fill="#ffffff"></rect><text id="SvgjsText1049" font-family="微软雅黑" text-anchor="middle" font-size="12px" width="99px" fill="#323232" font-weight="700" align="top" lineHeight="15px" anchor="middle" family="微软雅黑" size="12px" weight="700" font-style="" opacity="1" y="204.19038559641527" transform="rotate(0)"><tspan id="SvgjsTspan1050" dy="15" x="353.51725515353655"><tspan id="SvgjsTspan1051" style="text-decoration:;">upload QC image</tspan></tspan></text></g><g id="SvgjsG1052"><path id="SvgjsPath1053" d="M453.3756140597377 236.36677549233343L362.35968202986885 236.36677549233343L362.35968202986885 236.36677549233343L273.14375 236.36677549233343" stroke-dasharray="8,5" stroke="#cc6600" stroke-width="1" fill="none" marker-end="url(#SvgjsMarker1054)"></path><rect id="SvgjsRect1056" width="0" height="15" x="381.1824094103629" y="228.86677549233343" fill="#ffffff"></rect><text id="SvgjsText1057" font-family="微软雅黑" text-anchor="middle" font-size="12px" width="0px" fill="#323232" font-weight="700" align="top" lineHeight="15px" anchor="middle" family="微软雅黑" size="12px" weight="700" font-style="" opacity="1" y="226.36677549233343" transform="rotate(0)"></text><rect id="SvgjsRect1058" width="52" height="15" x="332.29334943524395" y="228.86677549233343" fill="#ffffff"></rect><text id="SvgjsText1059" font-family="微软雅黑" text-anchor="middle" font-size="12px" width="52px" fill="#323232" font-weight="700" align="top" lineHeight="15px" anchor="middle" family="微软雅黑" size="12px" weight="700" font-style="" opacity="1" y="226.36677549233343" transform="rotate(0)"><tspan id="SvgjsTspan1060" dy="15" x="358.29334943524395"><tspan id="SvgjsTspan1061" style="text-decoration:;">response</tspan></tspan></text></g><g id="SvgjsG1062"><path id="SvgjsPath1063" d="M271.84375 372.63358778625957L658.2609424290221 372.63358778625957" stroke="#000000" stroke-width="1" fill="none" marker-end="url(#SvgjsMarker1064)"></path><rect id="SvgjsRect1066" width="89" height="15" x="420.5523462145111" y="365.13358778625957" fill="#ffffff"></rect><text id="SvgjsText1067" font-family="微软雅黑" text-anchor="middle" font-size="12px" width="89px" fill="#323232" font-weight="700" align="top" lineHeight="15px" anchor="middle" family="微软雅黑" size="12px" weight="700" font-style="" opacity="1" y="362.63358778625957" transform="rotate(0)"><tspan id="SvgjsTspan1068" dy="15" x="465.0523462145111"><tspan id="SvgjsTspan1069" style="text-decoration:;">request sd task</tspan></tspan></text></g><g id="SvgjsG1070"><path id="SvgjsPath1071" d="M658.4628351735016 422.57824427480915L273.14375 422.57824427480915" stroke-dasharray="8,5" stroke="#cc6600" stroke-width="1" fill="none" marker-end="url(#SvgjsMarker1072)"></path><rect id="SvgjsRect1074" width="52" height="15" x="439.8032925867508" y="415.07824427480915" fill="#ffffff"></rect><text id="SvgjsText1075" font-family="微软雅黑" text-anchor="middle" font-size="12px" width="52px" fill="#323232" font-weight="700" align="top" lineHeight="15px" anchor="middle" family="微软雅黑" size="12px" weight="700" font-style="" opacity="1" y="412.57824427480915" transform="rotate(0)"><tspan id="SvgjsTspan1076" dy="15" x="465.8032925867508"><tspan id="SvgjsTspan1077" style="text-decoration:;">response</tspan></tspan></text></g><g id="SvgjsG1078" transform="translate(53.02119479495272,25)"><path id="SvgjsPath1079" d="M 12.274185068349102 5.875C 12.274185068349102 -1.9583333333333333 24.548370136698203 -1.9583333333333333 24.548370136698203 5.875C 24.548370136698203 13.708333333333334 12.274185068349102 13.708333333333334 12.274185068349102 5.875M 18.411277602523654 11.75L 18.411277602523654 35.25M 18.411277602523654 35.25L 3.0685462670872754 47M 18.411277602523654 35.25L 33.75400893796003 47M 0 23.5L 36.82255520504731 23.5" stroke="rgba(33,41,48,1)" stroke-width="1" fill-opacity="1" fill="#ffffff"></path><path id="SvgjsPath1080" d="M 0 0L 36.82255520504731 0L 36.82255520504731 47L 0 47Z" stroke="none" fill="none"></path><g id="SvgjsG1081"><text id="SvgjsText1082" font-family="微软雅黑" text-anchor="middle" font-size="13px" width="77px" fill="#323232" font-weight="400" align="middle" lineHeight="125%" anchor="middle" family="微软雅黑" size="13px" weight="400" font-style="" opacity="1" y="51.375" transform="rotate(0)"></text></g></g><g id="SvgjsG1083" transform="translate(241.91157334384854,191)"><path id="SvgjsPath1084" d="M 0 4Q 0 0 4 0L 26 0Q 30 0 30 4L 30 116Q 30 120 26 120L 4 120Q 0 120 0 116L 0 4Z" stroke="rgba(153,0,0,1)" stroke-width="1" fill-opacity="1" fill="#ffffff"></path></g><g id="SvgjsG1085" transform="translate(241.91157334384854,356)"><path id="SvgjsPath1086" d="M 0 4Q 0 0 4 0L 26 0Q 30 0 30 4L 30 91Q 30 95 26 95L 4 95Q 0 95 0 91L 0 4Z" stroke="rgba(153,0,0,1)" stroke-width="1" fill-opacity="1" fill="#ffffff"></path></g><g id="SvgjsG1087" transform="translate(450.26094242902207,191)"><path id="SvgjsPath1088" d="M 0 4Q 0 0 4 0L 26 0Q 30 0 30 4L 30 116Q 30 120 26 120L 4 120Q 0 120 0 116L 0 4Z" stroke="rgba(153,0,0,1)" stroke-width="1" fill-opacity="1" fill="#ffffff"></path></g><g id="SvgjsG1089" transform="translate(25.007393533123064,91.7266221374046)"><path id="SvgjsPath1090" d="M 46.42507886435328 30L 46.42507886435328 756.2733778625956" stroke-dasharray="3,4" stroke="rgba(0,0,0,1)" stroke-width="2" fill="none"></path><path id="SvgjsPath1091" d="M 0 0L 92.85015772870656 0L 92.85015772870656 30L 0 30Z" stroke="rgba(0,0,0,1)" stroke-width="1" fill-opacity="1" fill="#ffffff"></path><g id="SvgjsG1092"><text id="SvgjsText1093" font-family="微软雅黑" text-anchor="middle" font-size="13px" width="73px" fill="#323232" font-weight="700" align="middle" lineHeight="125%" anchor="middle" family="微软雅黑" size="13px" weight="700" font-style="" opacity="1" y="4.375" transform="rotate(0)"><tspan id="SvgjsTspan1094" dy="16" x="46.5"><tspan id="SvgjsTspan1095" style="text-decoration:;">user</tspan></tspan></text></g></g><g id="SvgjsG1096" transform="translate(53.02119479495272,191)"><path id="SvgjsPath1097" d="M 0 4Q 0 0 4 0L 26 0Q 30 0 30 4L 30 284Q 30 288 26 288L 4 288Q 0 288 0 284L 0 4Z" stroke="rgba(153,0,0,1)" stroke-width="1" fill-opacity="1" fill="#ffffff"></path></g><g id="SvgjsG1098" transform="translate(658.2609424290221,356)"><path id="SvgjsPath1099" d="M 0 4Q 0 0 4 0L 26 0Q 30 0 30 4L 30 91Q 30 95 26 95L 4 95Q 0 95 0 91L 0 4Z" stroke="rgba(153,0,0,1)" stroke-width="1" fill-opacity="1" fill="#ffffff"></path></g><g id="SvgjsG1100"><path id="SvgjsPath1101" d="M687.8293812206437 372.11900553573764C 806.34375 384 704.54375 415 689.1003619302121 414.6071711229602" stroke="#323232" stroke-width="1" fill="none" marker-end="url(#SvgjsMarker1102)"></path><rect id="SvgjsRect1104" width="65" height="16" x="707.2534788806007" y="389.1593614667836" fill="#ffffff"></rect><text id="SvgjsText1105" font-family="微软雅黑" text-anchor="middle" font-size="13px" width="65px" fill="#323232" font-weight="400" align="top" lineHeight="16px" anchor="middle" family="微软雅黑" size="13px" weight="400" font-style="" opacity="1" y="386.5343614667836" transform="rotate(0)"><tspan id="SvgjsTspan1106" dy="16" x="739.7534788806007"><tspan id="SvgjsTspan1107" style="text-decoration:;">async resp</tspan></tspan></text></g><g id="SvgjsG1108" transform="translate(812.6643335962144,91.72662213740455)"><path id="SvgjsPath1109" d="M 59.83970820189273 30L 59.83970820189273 752.2733778625955" stroke-dasharray="3,4" stroke="rgba(0,0,0,1)" stroke-width="2" fill="none"></path><path id="SvgjsPath1110" d="M 0 0L 119.67941640378547 0L 119.67941640378547 30L 0 30Z" stroke="rgba(0,0,0,1)" stroke-width="1" fill-opacity="1" fill="#ffffcc"></path><g id="SvgjsG1111"><text id="SvgjsText1112" font-family="微软雅黑" text-anchor="middle" font-size="13px" width="100px" fill="#323232" font-weight="700" align="middle" lineHeight="125%" anchor="middle" family="微软雅黑" size="13px" weight="700" font-style="" opacity="1" y="4.375" transform="rotate(0)"><tspan id="SvgjsTspan1113" dy="16" x="60"><tspan id="SvgjsTspan1114" style="text-decoration:;">sd serverless</tspan></tspan></text></g></g><g id="SvgjsG1115"><path id="SvgjsPath1116" d="M272.2081033123028 263.756679389313L360.98452287066243 263.756679389313L360.98452287066243 263.756679389313L450.26094242902207 263.756679389313" stroke="#000000" stroke-width="1" fill="none" marker-end="url(#SvgjsMarker1117)"></path><rect id="SvgjsRect1119" width="117" height="15" x="302.7345228706625" y="256.256679389313" fill="#ffffff"></rect><text id="SvgjsText1120" font-family="微软雅黑" text-anchor="middle" font-size="12px" width="117px" fill="#323232" font-weight="700" align="top" lineHeight="15px" anchor="middle" family="微软雅黑" size="12px" weight="700" font-style="" opacity="1" y="253.75667938931298" transform="rotate(0)"><tspan id="SvgjsTspan1121" dy="15" x="361.2345228706625"><tspan id="SvgjsTspan1122" style="text-decoration:;">save Task Info to db</tspan></tspan></text></g><g id="SvgjsG1123"><path id="SvgjsPath1124" d="M449.84375 290.36677549233343L360.84375 290.36677549233343L360.84375 290.36677549233343L273.14375 290.36677549233343" stroke-dasharray="8,5" stroke="#cc6600" stroke-width="1" fill="none" marker-end="url(#SvgjsMarker1125)"></path><rect id="SvgjsRect1127" width="0" height="15" x="379.0652595921308" y="282.86677549233343" fill="#ffffff"></rect><text id="SvgjsText1128" font-family="微软雅黑" text-anchor="middle" font-size="12px" width="0px" fill="#323232" font-weight="700" align="top" lineHeight="15px" anchor="middle" family="微软雅黑" size="12px" weight="700" font-style="" opacity="1" y="280.36677549233343" transform="rotate(0)"></text><rect id="SvgjsRect1129" width="52" height="15" x="330.62473877355364" y="282.86677549233343" fill="#ffffff"></rect><text id="SvgjsText1130" font-family="微软雅黑" text-anchor="middle" font-size="12px" width="52px" fill="#323232" font-weight="700" align="top" lineHeight="15px" anchor="middle" family="微软雅黑" size="12px" weight="700" font-style="" opacity="1" y="280.36677549233343" transform="rotate(0)"><tspan id="SvgjsTspan1131" dy="15" x="356.62473877355364"><tspan id="SvgjsTspan1132" style="text-decoration:;">response</tspan></tspan></text></g><g id="SvgjsG1133"><path id="SvgjsPath1134" d="M240.77588935996687 304.11711802167565L161.20157835506228 304.11711802167565L161.20157835506228 304.11711802167565L83.4272673501577 304.11711802167565" stroke-dasharray="8,5" stroke="#cc6600" stroke-width="1" fill="none" marker-end="url(#SvgjsMarker1135)"></path><rect id="SvgjsRect1137" width="52" height="15" x="136.10157835506232" y="296.61711802167565" fill="#ffffff"></rect><text id="SvgjsText1138" font-family="微软雅黑" text-anchor="middle" font-size="12px" width="52px" fill="#323232" font-weight="700" align="top" lineHeight="15px" anchor="middle" family="微软雅黑" size="12px" weight="700" font-style="" opacity="1" y="294.11711802167565" transform="rotate(0)"><tspan id="SvgjsTspan1139" dy="15" x="162.10157835506232"><tspan id="SvgjsTspan1140" style="text-decoration:;">response</tspan></tspan></text></g><g id="SvgjsG1141" transform="translate(658.2609424290221,479)"><path id="SvgjsPath1142" d="M 0 4Q 0 0 4 0L 26 0Q 30 0 30 4L 30 120Q 30 124 26 124L 4 124Q 0 124 0 120L 0 4Z" stroke="rgba(153,0,0,1)" stroke-width="1" fill-opacity="1" fill="#ffffff"></path></g><g id="SvgjsG1143" transform="translate(450.26094242902207,479)"><path id="SvgjsPath1144" d="M 0 4Q 0 0 4 0L 26 0Q 30 0 30 4L 30 120Q 30 124 26 124L 4 124Q 0 124 0 120L 0 4Z" stroke="rgba(153,0,0,1)" stroke-width="1" fill-opacity="1" fill="#ffffff"></path></g><g id="SvgjsG1145"><path id="SvgjsPath1146" d="M657.84375 500L481.79375000000005 500" stroke="#323232" stroke-width="1.5" fill="none" marker-end="url(#SvgjsMarker1147)"></path><rect id="SvgjsRect1149" width="99" height="16" x="508.02475558659216" y="492" fill="#ffffff"></rect><text id="SvgjsText1150" font-family="微软雅黑" text-anchor="middle" font-size="13px" width="99px" fill="#323232" font-weight="400" align="top" lineHeight="16px" anchor="middle" family="微软雅黑" size="13px" weight="400" font-style="" opacity="1" y="489.375" transform="rotate(0)"><tspan id="SvgjsTspan1151" dy="16" x="557.5247555865922"><tspan id="SvgjsTspan1152" style="text-decoration:;">select task by id</tspan></tspan></text></g><g id="SvgjsG1153"><path id="SvgjsPath1154" d="M479.84375 528L655.89375 528" stroke="#323232" stroke-width="1.5" fill="none" marker-end="url(#SvgjsMarker1155)"></path><rect id="SvgjsRect1157" width="55" height="16" x="531.02531424581" y="520" fill="#ffffff"></rect><text id="SvgjsText1158" font-family="微软雅黑" text-anchor="middle" font-size="13px" width="55px" fill="#323232" font-weight="400" align="top" lineHeight="16px" anchor="middle" family="微软雅黑" size="13px" weight="400" font-style="" opacity="1" y="517.375" transform="rotate(0)"><tspan id="SvgjsTspan1159" dy="16" x="558.52531424581"><tspan id="SvgjsTspan1160" style="text-decoration:;">response</tspan></tspan></text></g><g id="SvgjsG1161"><path id="SvgjsPath1162" d="M658.34375 550L479.34375 550" stroke="#323232" stroke-width="1.5" fill="none" marker-end="url(#SvgjsMarker1163)"></path><rect id="SvgjsRect1165" width="99" height="16" x="506.84375" y="542" fill="#ffffff"></rect><text id="SvgjsText1166" font-family="微软雅黑" text-anchor="middle" font-size="13px" width="99px" fill="#323232" font-weight="400" align="top" lineHeight="16px" anchor="middle" family="微软雅黑" size="13px" weight="400" font-style="" opacity="1" y="539.375" transform="rotate(0)"><tspan id="SvgjsTspan1167" dy="16" x="556.34375"><tspan id="SvgjsTspan1168" style="text-decoration:;">download image</tspan></tspan></text></g><g id="SvgjsG1169"><path id="SvgjsPath1170" d="M479.34375 578L658.34375 578" stroke="#323232" stroke-width="1.5" fill="none" marker-end="url(#SvgjsMarker1171)"></path><rect id="SvgjsRect1173" width="55" height="16" x="531.84375" y="570" fill="#ffffff"></rect><text id="SvgjsText1174" font-family="微软雅黑" text-anchor="middle" font-size="13px" width="55px" fill="#323232" font-weight="400" align="top" lineHeight="16px" anchor="middle" family="微软雅黑" size="13px" weight="400" font-style="" opacity="1" y="567.375" transform="rotate(0)"><tspan id="SvgjsTspan1175" dy="16" x="559.34375"><tspan id="SvgjsTspan1176" style="text-decoration:;">response</tspan></tspan></text></g><g id="SvgjsG1177" transform="translate(658.2609424290221,631)"><path id="SvgjsPath1178" d="M 0 4Q 0 0 4 0L 26 0Q 30 0 30 4L 30 174Q 30 178 26 178L 4 178Q 0 178 0 174L 0 4Z" stroke="rgba(153,0,0,1)" stroke-width="1" fill-opacity="1" fill="#ffffff"></path></g><g id="SvgjsG1179" transform="translate(858.2609424290222,626)"><path id="SvgjsPath1180" d="M 0 4Q 0 0 4 0L 26 0Q 30 0 30 4L 30 79Q 30 83 26 83L 4 83Q 0 83 0 79L 0 4Z" stroke="rgba(153,0,0,1)" stroke-width="1" fill-opacity="1" fill="#ffffff"></path></g><g id="SvgjsG1181"><path id="SvgjsPath1182" d="M687.84375 653L858.2609424290222 653" stroke="#323232" stroke-width="1.5" fill="none" marker-end="url(#SvgjsMarker1183)"></path><rect id="SvgjsRect1185" width="109" height="16" x="703.1389724729263" y="645" fill="#ffffff"></rect><text id="SvgjsText1186" font-family="微软雅黑" text-anchor="middle" font-size="13px" width="109px" fill="#323232" font-weight="400" align="top" lineHeight="16px" anchor="middle" family="微软雅黑" size="13px" weight="400" font-style="" opacity="1" y="642.375" transform="rotate(0)"><tspan id="SvgjsTspan1187" dy="16" x="757.6389724729263"><tspan id="SvgjsTspan1188" style="text-decoration:;">async submit task</tspan></tspan></text></g><g id="SvgjsG1189"><path id="SvgjsPath1190" d="M857.84375 690.5782442748091L689.14375 690.5782442748091" stroke-dasharray="8,5" stroke="#cc6600" stroke-width="1" fill="none" marker-end="url(#SvgjsMarker1191)"></path><rect id="SvgjsRect1193" width="52" height="15" x="747.4937499999999" y="683.0782442748091" fill="#ffffff"></rect><text id="SvgjsText1194" font-family="微软雅黑" text-anchor="middle" font-size="12px" width="52px" fill="#323232" font-weight="700" align="top" lineHeight="15px" anchor="middle" family="微软雅黑" size="12px" weight="700" font-style="" opacity="1" y="680.5782442748091" transform="rotate(0)"><tspan id="SvgjsTspan1195" dy="15" x="773.4937499999999"><tspan id="SvgjsTspan1196" style="text-decoration:;">response</tspan></tspan></text></g><g id="SvgjsG1197" transform="translate(450.26094242902207,631)"><path id="SvgjsPath1198" d="M 0 4Q 0 0 4 0L 26 0Q 30 0 30 4L 30 139Q 30 143 26 143L 4 143Q 0 143 0 139L 0 4Z" stroke="rgba(153,0,0,1)" stroke-width="1" fill-opacity="1" fill="#ffffff"></path></g><g id="SvgjsG1199"><path id="SvgjsPath1200" d="M657.84375 712L481.79375000000005 712" stroke="#323232" stroke-width="1.5" fill="none" marker-end="url(#SvgjsMarker1201)"></path><rect id="SvgjsRect1203" width="99" height="16" x="521.794029329609" y="704" fill="#ffffff"></rect><text id="SvgjsText1204" font-family="微软雅黑" text-anchor="middle" font-size="13px" width="99px" fill="#323232" font-weight="400" align="top" lineHeight="16px" anchor="middle" family="微软雅黑" size="13px" weight="400" font-style="" opacity="1" y="701.375" transform="rotate(0)"><tspan id="SvgjsTspan1205" dy="16" x="571.294029329609"><tspan id="SvgjsTspan1206" style="text-decoration:;">update task info</tspan></tspan></text></g><g id="SvgjsG1207" transform="translate(56.432472397476374,733)"><path id="SvgjsPath1208" d="M 0 4Q 0 0 4 0L 26 0Q 30 0 30 4L 30 91Q 30 95 26 95L 4 95Q 0 95 0 91L 0 4Z" stroke="rgba(153,0,0,1)" stroke-width="1" fill-opacity="1" fill="#ffffff"></path></g><g id="SvgjsG1209"><path id="SvgjsPath1210" d="M657.84375 792L88.79374999999999 792" stroke="#323232" stroke-width="1.5" fill="none" marker-end="url(#SvgjsMarker1211)"></path><rect id="SvgjsRect1213" width="169" height="16" x="266.93221153846156" y="784" fill="#ffffff"></rect><text id="SvgjsText1214" font-family="微软雅黑" text-anchor="middle" font-size="13px" width="169px" fill="#323232" font-weight="400" align="top" lineHeight="16px" anchor="middle" family="微软雅黑" size="13px" weight="400" font-style="" opacity="1" y="781.375" transform="rotate(0)"><tspan id="SvgjsTspan1215" dy="16" x="351.43221153846156"><tspan id="SvgjsTspan1216" style="text-decoration:;">notify new qc image to user</tspan></tspan></text></g><g id="SvgjsG1217"><path id="SvgjsPath1218" d="M660.34375 738L481.79375000000005 738" stroke="#323232" stroke-width="1.5" fill="none" marker-end="url(#SvgjsMarker1219)"></path><rect id="SvgjsRect1221" width="100" height="16" x="514.6567334254144" y="730" fill="#ffffff"></rect><text id="SvgjsText1222" font-family="微软雅黑" text-anchor="middle" font-size="13px" width="100px" fill="#323232" font-weight="400" align="top" lineHeight="16px" anchor="middle" family="微软雅黑" size="13px" weight="400" font-style="" opacity="1" y="727.375" transform="rotate(0)"><tspan id="SvgjsTspan1223" dy="16" x="564.6567334254144"><tspan id="SvgjsTspan1224" style="text-decoration:;">upload qc image</tspan></tspan></text></g><g id="SvgjsG1225"><path id="SvgjsPath1226" d="M687.8340188046332 737.0981656722258C 847.34375 752 705.34375 782 689.7594018427883 781.5911893171241" stroke="#323232" stroke-width="1.5" fill="none" marker-end="url(#SvgjsMarker1227)"></path><rect id="SvgjsRect1229" width="131" height="16" x="690.9957842098573" y="741.807360975251" fill="#ffffff"></rect><text id="SvgjsText1230" font-family="微软雅黑" text-anchor="middle" font-size="13px" width="131px" fill="#323232" font-weight="400" align="top" lineHeight="16px" anchor="middle" family="微软雅黑" size="13px" weight="400" font-style="" opacity="1" y="739.182360975251" transform="rotate(0)"><tspan id="SvgjsTspan1231" dy="16" x="756.4957842098573"><tspan id="SvgjsTspan1232" style="text-decoration:;">update task and push</tspan></tspan></text></g><g id="SvgjsG1233"><path id="SvgjsPath1234" d="M887.8362274824894 651.0864056088511C 1033.34375 656 900.9437499999999 685 889.7434484191174 684.5060895857688" stroke="#323232" stroke-width="1.5" fill="none" marker-end="url(#SvgjsMarker1235)"></path><rect id="SvgjsRect1237" width="27" height="16" x="937.5684137196256" y="659.9419225087124" fill="#ffffff"></rect><text id="SvgjsText1238" font-family="微软雅黑" text-anchor="middle" font-size="13px" width="27px" fill="#323232" font-weight="400" align="top" lineHeight="16px" anchor="middle" family="微软雅黑" size="13px" weight="400" font-style="" opacity="1" y="657.3169225087124" transform="rotate(0)"><tspan id="SvgjsTspan1239" dy="16" x="951.0684137196256"><tspan id="SvgjsTspan1240" style="text-decoration:;">infer</tspan></tspan></text></g></svg>